<mxfile host="app.diagrams.net" modified="2024-02-06T05:19:08.176Z" agent="Mozilla/5.0 (Windows NT 10.0; Win64; x64) AppleWebKit/537.36 (KHTML, like Gecko) Chrome/121.0.0.0 Safari/537.36" etag="LMbbZAmz2vkU9z5qmnFf" version="23.1.1" type="github">
  <diagram name="Page-1" id="0rikLW4xVVEGlAG-TejK">
    <mxGraphModel dx="1434" dy="780" grid="1" gridSize="10" guides="1" tooltips="1" connect="1" arrows="1" fold="1" page="1" pageScale="1" pageWidth="850" pageHeight="1100" math="0" shadow="0">
      <root>
        <mxCell id="0" />
        <mxCell id="1" parent="0" />
        <mxCell id="RbSZT5T6k4u5z0i5H2v0-1" value="" style="rounded=0;whiteSpace=wrap;html=1;" vertex="1" parent="1">
          <mxGeometry x="270" y="80" width="250" height="440" as="geometry" />
        </mxCell>
        <mxCell id="RbSZT5T6k4u5z0i5H2v0-2" value="Perpustakaan Digital" style="text;html=1;strokeColor=none;fillColor=none;align=center;verticalAlign=middle;whiteSpace=wrap;rounded=0;" vertex="1" parent="1">
          <mxGeometry x="365" y="90" width="60" height="30" as="geometry" />
        </mxCell>
        <mxCell id="RbSZT5T6k4u5z0i5H2v0-3" value="" style="ellipse;whiteSpace=wrap;html=1;" vertex="1" parent="1">
          <mxGeometry x="320" y="130" width="150" height="80" as="geometry" />
        </mxCell>
        <mxCell id="RbSZT5T6k4u5z0i5H2v0-7" value="" style="ellipse;whiteSpace=wrap;html=1;" vertex="1" parent="1">
          <mxGeometry x="320" y="220" width="150" height="80" as="geometry" />
        </mxCell>
        <mxCell id="RbSZT5T6k4u5z0i5H2v0-8" value="" style="ellipse;whiteSpace=wrap;html=1;" vertex="1" parent="1">
          <mxGeometry x="320" y="310" width="150" height="80" as="geometry" />
        </mxCell>
        <mxCell id="RbSZT5T6k4u5z0i5H2v0-9" value="" style="ellipse;whiteSpace=wrap;html=1;" vertex="1" parent="1">
          <mxGeometry x="320" y="400" width="150" height="80" as="geometry" />
        </mxCell>
        <mxCell id="RbSZT5T6k4u5z0i5H2v0-10" value="MENGISI FORM" style="text;html=1;strokeColor=none;fillColor=none;align=center;verticalAlign=middle;whiteSpace=wrap;rounded=0;" vertex="1" parent="1">
          <mxGeometry x="345" y="155" width="100" height="30" as="geometry" />
        </mxCell>
        <mxCell id="RbSZT5T6k4u5z0i5H2v0-11" value="RIWAYAT PENGUNJUNG" style="text;html=1;strokeColor=none;fillColor=none;align=center;verticalAlign=middle;whiteSpace=wrap;rounded=0;" vertex="1" parent="1">
          <mxGeometry x="330" y="245" width="130" height="30" as="geometry" />
        </mxCell>
        <mxCell id="RbSZT5T6k4u5z0i5H2v0-12" value="CARI BUKU" style="text;html=1;strokeColor=none;fillColor=none;align=center;verticalAlign=middle;whiteSpace=wrap;rounded=0;" vertex="1" parent="1">
          <mxGeometry x="360" y="335" width="70" height="30" as="geometry" />
        </mxCell>
        <mxCell id="RbSZT5T6k4u5z0i5H2v0-13" value="PENCARIAN RAK BUKU" style="text;html=1;strokeColor=none;fillColor=none;align=center;verticalAlign=middle;whiteSpace=wrap;rounded=0;" vertex="1" parent="1">
          <mxGeometry x="335" y="425" width="120" height="30" as="geometry" />
        </mxCell>
        <mxCell id="RbSZT5T6k4u5z0i5H2v0-19" value="" style="endArrow=none;html=1;rounded=0;" edge="1" parent="1" source="RbSZT5T6k4u5z0i5H2v0-1">
          <mxGeometry width="50" height="50" relative="1" as="geometry">
            <mxPoint x="470" y="370" as="sourcePoint" />
            <mxPoint x="520" y="320" as="targetPoint" />
          </mxGeometry>
        </mxCell>
        <mxCell id="RbSZT5T6k4u5z0i5H2v0-44" style="edgeStyle=orthogonalEdgeStyle;rounded=0;orthogonalLoop=1;jettySize=auto;html=1;exitX=1;exitY=0.3333333333333333;exitDx=0;exitDy=0;exitPerimeter=0;" edge="1" parent="1" source="RbSZT5T6k4u5z0i5H2v0-24">
          <mxGeometry relative="1" as="geometry">
            <mxPoint x="290" y="300" as="targetPoint" />
          </mxGeometry>
        </mxCell>
        <mxCell id="RbSZT5T6k4u5z0i5H2v0-24" value="USER" style="shape=umlActor;verticalLabelPosition=bottom;verticalAlign=top;html=1;outlineConnect=0;" vertex="1" parent="1">
          <mxGeometry x="80" y="200" width="70" height="160" as="geometry" />
        </mxCell>
        <mxCell id="RbSZT5T6k4u5z0i5H2v0-45" style="edgeStyle=orthogonalEdgeStyle;rounded=0;orthogonalLoop=1;jettySize=auto;html=1;exitX=0;exitY=0.3333333333333333;exitDx=0;exitDy=0;exitPerimeter=0;" edge="1" parent="1" source="RbSZT5T6k4u5z0i5H2v0-25">
          <mxGeometry relative="1" as="geometry">
            <mxPoint x="510" y="290" as="targetPoint" />
          </mxGeometry>
        </mxCell>
        <mxCell id="RbSZT5T6k4u5z0i5H2v0-25" value="PUSTAKAWAN" style="shape=umlActor;verticalLabelPosition=bottom;verticalAlign=top;html=1;outlineConnect=0;" vertex="1" parent="1">
          <mxGeometry x="660" y="200" width="80" height="160" as="geometry" />
        </mxCell>
        <mxCell id="RbSZT5T6k4u5z0i5H2v0-27" style="edgeStyle=orthogonalEdgeStyle;rounded=0;orthogonalLoop=1;jettySize=auto;html=1;entryX=0.027;entryY=0.4;entryDx=0;entryDy=0;entryPerimeter=0;" edge="1" parent="1" target="RbSZT5T6k4u5z0i5H2v0-3">
          <mxGeometry relative="1" as="geometry">
            <mxPoint x="290" y="460" as="sourcePoint" />
            <Array as="points">
              <mxPoint x="300" y="460" />
              <mxPoint x="290" y="460" />
              <mxPoint x="290" y="162" />
            </Array>
          </mxGeometry>
        </mxCell>
        <mxCell id="RbSZT5T6k4u5z0i5H2v0-28" value="" style="endArrow=classic;html=1;rounded=0;entryX=0.067;entryY=0.75;entryDx=0;entryDy=0;entryPerimeter=0;" edge="1" parent="1" target="RbSZT5T6k4u5z0i5H2v0-9">
          <mxGeometry width="50" height="50" relative="1" as="geometry">
            <mxPoint x="290" y="460" as="sourcePoint" />
            <mxPoint x="300" y="480" as="targetPoint" />
            <Array as="points">
              <mxPoint x="320" y="460" />
            </Array>
          </mxGeometry>
        </mxCell>
        <mxCell id="RbSZT5T6k4u5z0i5H2v0-29" style="edgeStyle=orthogonalEdgeStyle;rounded=0;orthogonalLoop=1;jettySize=auto;html=1;entryX=1;entryY=0.5;entryDx=0;entryDy=0;exitX=0.88;exitY=0.857;exitDx=0;exitDy=0;exitPerimeter=0;" edge="1" parent="1" source="RbSZT5T6k4u5z0i5H2v0-1" target="RbSZT5T6k4u5z0i5H2v0-3">
          <mxGeometry relative="1" as="geometry">
            <mxPoint x="520" y="300" as="sourcePoint" />
            <Array as="points">
              <mxPoint x="510" y="450" />
              <mxPoint x="510" y="160" />
              <mxPoint x="470" y="160" />
            </Array>
          </mxGeometry>
        </mxCell>
        <mxCell id="RbSZT5T6k4u5z0i5H2v0-31" value="" style="endArrow=classic;html=1;rounded=0;entryX=0.993;entryY=0.313;entryDx=0;entryDy=0;entryPerimeter=0;elbow=vertical;" edge="1" parent="1">
          <mxGeometry width="50" height="50" relative="1" as="geometry">
            <mxPoint x="511" y="450" as="sourcePoint" />
            <mxPoint x="470.00000000000006" y="450.03999999999996" as="targetPoint" />
            <Array as="points">
              <mxPoint x="511" y="450" />
              <mxPoint x="500" y="450" />
            </Array>
          </mxGeometry>
        </mxCell>
        <mxCell id="RbSZT5T6k4u5z0i5H2v0-33" value="" style="endArrow=classic;html=1;rounded=0;" edge="1" parent="1">
          <mxGeometry width="50" height="50" relative="1" as="geometry">
            <mxPoint x="290" y="260" as="sourcePoint" />
            <mxPoint x="320" y="260" as="targetPoint" />
          </mxGeometry>
        </mxCell>
        <mxCell id="RbSZT5T6k4u5z0i5H2v0-35" value="" style="endArrow=classic;html=1;rounded=0;entryX=0;entryY=0.5;entryDx=0;entryDy=0;" edge="1" parent="1" target="RbSZT5T6k4u5z0i5H2v0-8">
          <mxGeometry width="50" height="50" relative="1" as="geometry">
            <mxPoint x="290" y="350" as="sourcePoint" />
            <mxPoint x="330" y="270" as="targetPoint" />
            <Array as="points" />
          </mxGeometry>
        </mxCell>
        <mxCell id="RbSZT5T6k4u5z0i5H2v0-36" value="" style="endArrow=classic;html=1;rounded=0;entryX=1;entryY=0.5;entryDx=0;entryDy=0;" edge="1" parent="1" target="RbSZT5T6k4u5z0i5H2v0-7">
          <mxGeometry width="50" height="50" relative="1" as="geometry">
            <mxPoint x="510" y="260" as="sourcePoint" />
            <mxPoint x="330" y="360" as="targetPoint" />
            <Array as="points">
              <mxPoint x="510" y="260" />
            </Array>
          </mxGeometry>
        </mxCell>
        <mxCell id="RbSZT5T6k4u5z0i5H2v0-38" value="" style="endArrow=classic;html=1;rounded=0;entryX=1;entryY=0.5;entryDx=0;entryDy=0;" edge="1" parent="1" target="RbSZT5T6k4u5z0i5H2v0-8">
          <mxGeometry width="50" height="50" relative="1" as="geometry">
            <mxPoint x="510" y="350" as="sourcePoint" />
            <mxPoint x="520" y="360" as="targetPoint" />
          </mxGeometry>
        </mxCell>
      </root>
    </mxGraphModel>
  </diagram>
</mxfile>
